<?xml version="1.0" standalone="no"?>
<!DOCTYPE svg PUBLIC "-//W3C//DTD SVG 20010904//EN"
 "http://www.w3.org/TR/2001/REC-SVG-20010904/DTD/svg10.dtd">
<svg version="1.0" xmlns="http://www.w3.org/2000/svg"
 width="453.000000pt" height="453.000000pt" viewBox="0 0 453.000000 453.000000"
 preserveAspectRatio="xMidYMid meet">
<metadata>
Created by potrace 1.11, written by Peter Selinger 2001-2013
</metadata>
<g transform="translate(0.000000,453.000000) scale(0.100000,-0.100000)"
fill="#000000" stroke="none">
<path d="M2157 4374 c-1 -1 -40 -5 -87 -8 -138 -10 -339 -51 -475 -98 -511
-174 -932 -536 -1182 -1018 -59 -114 -139 -319 -158 -406 -2 -10 -13 -59 -24
-109 -11 -49 -23 -115 -26 -145 -4 -30 -9 -68 -11 -85 -7 -51 -6 -337 0 -390
4 -27 9 -70 12 -95 9 -70 43 -222 69 -310 115 -385 359 -745 680 -1006 55 -44
192 -144 199 -144 2 0 30 -16 62 -36 384 -232 933 -331 1374 -249 14 3 41 7
60 10 19 3 60 13 90 21 30 8 62 16 71 18 174 41 500 200 654 318 277 212 480
451 623 734 44 87 99 210 106 239 1 6 15 48 29 95 31 98 63 248 72 335 4 33 8
71 11 85 5 32 5 326 0 365 -3 17 -8 55 -11 85 -4 30 -9 63 -11 75 -2 11 -9 46
-14 78 -14 77 -63 239 -99 329 -80 201 -174 363 -302 525 -355 448 -877 730
-1439 779 -69 6 -269 12 -273 8z"/>
</g>
</svg>
