<?xml version="1.0" standalone="no"?>
<!DOCTYPE svg PUBLIC "-//W3C//DTD SVG 20010904//EN"
 "http://www.w3.org/TR/2001/REC-SVG-20010904/DTD/svg10.dtd">
<svg version="1.0" xmlns="http://www.w3.org/2000/svg"
 width="175.000000pt" height="175.000000pt" viewBox="0 0 175.000000 175.000000"
 preserveAspectRatio="xMidYMid meet">
<metadata>
Created by potrace 1.11, written by Peter Selinger 2001-2013
</metadata>
<g transform="translate(0.000000,175.000000) scale(0.100000,-0.100000)"
fill="#000000" stroke="none">
<path d="M620 1714 c-261 -77 -473 -281 -561 -539 -36 -104 -40 -129 -45 -255
-18 -499 402 -910 895 -877 162 11 313 64 436 152 241 171 371 433 361 725 -5
121 -6 130 -31 217 -63 217 -230 419 -432 522 -24 11 -81 34 -129 50 -81 27
-97 29 -248 30 -144 0 -170 -2 -246 -25z"/>
</g>
</svg>
